<svg width="49" height="48" viewBox="0 0 49 48" fill="none" xmlns="http://www.w3.org/2000/svg">
<path fill-rule="evenodd" clip-rule="evenodd" d="M24.5 48C37.7548 48 48.5 37.2548 48.5 24C48.5 10.7452 37.7548 0 24.5 0C11.2452 0 0.5 10.7452 0.5 24C0.5 37.2548 11.2452 48 24.5 48Z" fill="#F38E26"/>
<path fill-rule="evenodd" clip-rule="evenodd" d="M20.7142 29.6787L34.7898 15.6L37.148 17.9588L20.3939 34.7166L20.1886 34.5113L20.171 34.5289L11.1372 25.4933L13.8334 22.7966L20.7142 29.6787Z" fill="black"/>
<path fill-rule="evenodd" clip-rule="evenodd" d="M34.7898 12.2055L40.5417 17.9587L20.3938 38.1111L20.1886 37.9058L20.171 37.9233L7.74341 25.4933L13.8333 19.4021L20.7142 26.2842L34.7898 12.2055Z" fill="black"/>
</svg>
