<svg width="121" height="22" viewBox="0 0 121 22" fill="none" xmlns="http://www.w3.org/2000/svg">
<path id="Union" fill-rule="evenodd" clip-rule="evenodd" d="M74.8626 7.55253H77.8459V21.1221H75.8211C75.2943 21.1221 74.8626 20.6947 74.8626 20.1636V7.55253ZM76.3521 4.59511C75.2684 4.59511 74.3445 3.70141 74.3445 2.58752C74.3445 1.47363 75.2684 0.605835 76.3521 0.605835C77.4358 0.605835 78.3338 1.49954 78.3338 2.58752C78.3338 3.6755 77.466 4.59511 76.3521 4.59511ZM35.3367 14.3396C35.3367 11.896 36.9643 9.99633 39.3777 9.99633C41.7912 9.99633 43.4188 11.896 43.4188 14.3396C43.4188 16.7833 41.7912 18.6829 39.3777 18.6829C36.9643 18.6829 35.3367 16.7833 35.3367 14.3396ZM43.177 9.37031C42.4172 8.28664 40.7895 7.28069 38.8337 7.28069L38.8294 7.285C35.1121 7.285 32.2886 10.4583 32.2886 14.3396C32.2886 18.221 35.1121 21.3943 38.8294 21.3943C40.7852 21.3943 42.4129 20.3883 43.1727 19.3046V20.1638C43.1727 20.6948 43.6045 21.1223 44.1312 21.1223H46.1604V0.770052H43.177V9.37031ZM7.46375 9.99607C5.05033 9.99607 3.41835 11.8957 3.41835 14.3394C3.41835 16.783 5.04601 18.6827 7.46375 18.6827C9.87718 18.6827 11.5092 16.783 11.5092 14.3394C11.5092 11.8957 9.88149 9.99607 7.46375 9.99607ZM6.92408 7.28043C8.87986 7.28043 10.5075 8.28638 11.2674 9.37005V7.55242H14.2507V21.122H12.2215C11.6948 21.122 11.2631 20.6946 11.2631 20.1635V19.3044C10.5032 20.388 8.87554 21.394 6.91976 21.394C3.20248 21.394 0.378906 18.2207 0.378906 14.3394C0.383224 10.458 3.2068 7.28043 6.92408 7.28043ZM17.6401 7.55242H20.6278V9.39595C21.4395 8.04029 22.9894 7.28043 24.7509 7.28043C27.8983 7.28043 29.9318 9.50389 29.9318 12.9535V21.122H27.9026C27.3759 21.122 26.9441 20.6946 26.9441 20.1635V13.4413C26.9441 11.2956 25.8605 9.99607 24.1206 9.99607C22.1389 9.99607 20.6191 11.5417 20.6191 14.4473V21.122H18.59C18.0632 21.122 17.6315 20.6946 17.6315 20.1635V7.55242H17.6401ZM49.55 7.5525H52.5334V9.96592C53.0471 8.4203 54.5669 7.41434 56.1168 7.41434C56.4967 7.41434 56.8767 7.44025 57.2825 7.52228V10.5876C56.7687 10.4236 56.3327 10.3415 55.7887 10.3415C54.079 10.3415 52.5334 11.7792 52.5334 14.4949V21.1178H50.5042C49.9775 21.1178 49.5457 20.6903 49.5457 20.1593V7.54818L49.55 7.5525ZM69.4059 14.3351C69.4059 16.7485 67.7221 18.6222 65.3346 18.6222C62.9212 18.6222 61.2374 16.7485 61.2374 14.3351C61.2374 11.9216 62.9212 10.0479 65.3346 10.0479C67.7221 10.0479 69.4059 11.9216 69.4059 14.3351ZM58.2238 14.3351C58.2238 18.2682 61.3194 21.3897 65.3346 21.3897C69.3541 21.3897 72.4454 18.2682 72.4454 14.3351C72.4454 10.4019 69.3498 7.28043 65.3346 7.28043C61.3151 7.28043 58.2238 10.4019 58.2238 14.3351ZM83.3422 14.3396C83.3422 11.896 84.9699 9.99633 87.3833 9.99633C89.801 9.99633 91.4287 11.896 91.4287 14.3396C91.4287 16.7833 89.7967 18.6829 87.3833 18.6829C84.9699 18.6829 83.3422 16.7833 83.3422 14.3396ZM91.1826 9.37031C90.4228 8.28664 88.7951 7.28069 86.8393 7.28069L86.835 7.285C83.1177 7.285 80.2941 10.4583 80.2941 14.3396C80.2941 18.221 83.1177 21.3943 86.835 21.3943C88.7908 21.3943 90.4184 20.3883 91.1783 19.3046V20.1638C91.1783 20.6948 91.61 21.1223 92.1368 21.1223H94.1659V0.770052H91.1826V9.37031ZM96.437 9.2796H99.3512V17.3272C99.3512 19.9177 100.91 21.2561 103.228 21.2561C103.967 21.2561 104.623 21.1481 105.249 20.902V19.1837C104.813 19.378 104.074 19.4859 103.53 19.4859C102.002 19.4859 101.264 18.834 101.264 17.1675V9.2796H105.249V7.47925H101.264V3.68426H99.3555V7.47925H96.437V9.2796ZM114.393 21.1222L120.778 7.47918H118.624L113.629 18.3115L108.634 7.47918H106.505L112.891 21.1222H114.393Z" fill="black"/>
</svg>
