<svg width="67" height="36" viewBox="0 0 67 36" fill="none" xmlns="http://www.w3.org/2000/svg">
<g clip-path="url(#clip0_3228_26640)">
<path d="M3.14392 20.7801C3.0691 20.7914 2.99267 20.7851 2.92072 20.7616C2.84878 20.7382 2.78332 20.6982 2.72957 20.6449C2.67583 20.5917 2.63529 20.5266 2.6112 20.4548C2.58711 20.3831 2.58013 20.3067 2.59082 20.2318V8.95633H0.553086C0.478269 8.96769 0.401833 8.96138 0.329888 8.93793C0.257942 8.91447 0.192481 8.8745 0.138736 8.82123C0.0849918 8.76796 0.0444537 8.70285 0.0203619 8.63111C-0.00373004 8.55938 -0.0107077 8.483 -1.35489e-05 8.40809V7.71914C-0.010665 7.56928 0.0342406 7.42074 0.126132 7.30189C0.262054 7.18618 0.432936 7.11953 0.611307 7.11267L2.59567 6.86038V4.60431C2.59244 1.53477 4.0609 0 7.00107 0C7.74992 0.00579089 8.49499 0.106873 9.21832 0.300809C9.38452 0.335621 9.5346 0.424302 9.64527 0.5531C9.74633 0.727755 9.79042 0.929571 9.77142 1.13046V1.84852C9.77142 2.19784 9.63557 2.37251 9.35902 2.37251C9.12239 2.36429 8.88697 2.33506 8.65551 2.28518C8.31405 2.22805 7.96829 2.20045 7.62209 2.2027C6.98913 2.14038 6.35535 2.31307 5.8415 2.68787C5.65435 2.9034 5.51309 3.15481 5.42634 3.42675C5.33958 3.69869 5.30916 3.98545 5.33691 4.26954V6.79245H9.05821C9.13349 6.78091 9.21043 6.78725 9.2828 6.81097C9.35518 6.83468 9.42095 6.8751 9.47481 6.92895C9.52866 6.98281 9.56908 7.04858 9.59279 7.12096C9.61651 7.19333 9.62285 7.27027 9.61131 7.34555V8.39353C9.622 8.46845 9.61502 8.54482 9.59093 8.61656C9.56684 8.6883 9.5263 8.7534 9.47256 8.80668C9.41881 8.85995 9.35335 8.89991 9.28141 8.92337C9.20946 8.94683 9.13303 8.95313 9.05821 8.94178H5.33691V20.2318C5.34743 20.3063 5.34049 20.3821 5.31666 20.4534C5.29282 20.5248 5.25274 20.5896 5.19958 20.6427C5.14641 20.6959 5.08161 20.736 5.0103 20.7598C4.93899 20.7836 4.86312 20.7906 4.78867 20.7801H3.14392Z" fill="#F15A25"/>
<path d="M13.3274 4.32764C13.0993 4.34264 12.8706 4.31078 12.6553 4.23401C12.44 4.15724 12.2427 4.0372 12.0756 3.88128C11.9247 3.72023 11.8085 3.5299 11.7343 3.32208C11.66 3.11427 11.6292 2.8934 11.6438 2.67319C11.6278 2.4514 11.6579 2.22869 11.7323 2.01911C11.8066 1.80952 11.9235 1.61759 12.0756 1.4554C12.2419 1.29775 12.4389 1.17592 12.6542 1.09747C12.8695 1.01902 13.0986 0.985622 13.3274 0.99934C13.5561 0.985622 13.7853 1.01902 14.0006 1.09747C14.2159 1.17592 14.4128 1.29775 14.5791 1.4554C14.7365 1.61513 14.8588 1.80595 14.9381 2.01565C15.0175 2.22535 15.0522 2.44931 15.04 2.67319C15.0508 2.89548 15.0155 3.11759 14.9361 3.32552C14.8568 3.53344 14.7352 3.72268 14.5791 3.88128C14.412 4.0372 14.2147 4.15724 13.9994 4.23401C13.7842 4.31078 13.5554 4.34264 13.3274 4.32764ZM12.5026 20.7799C12.4278 20.7913 12.3513 20.785 12.2794 20.7615C12.2074 20.7381 12.142 20.6981 12.0882 20.6448C12.0345 20.5916 11.9939 20.5264 11.9698 20.4547C11.9458 20.383 11.9388 20.3066 11.9495 20.2317V7.35999C11.9353 7.28363 11.9397 7.20499 11.9622 7.13068C11.9848 7.05636 12.0248 6.98854 12.079 6.93292C12.1332 6.8773 12.2 6.8355 12.2737 6.81104C12.3474 6.78657 12.4259 6.78016 12.5026 6.79233H14.1279C14.2028 6.78164 14.2792 6.78862 14.3509 6.81271C14.4227 6.8368 14.4878 6.87734 14.5411 6.93108C14.5943 6.98483 14.6343 7.05029 14.6577 7.12223C14.6812 7.19418 14.6875 7.27061 14.6762 7.34543V20.2317C14.6867 20.3061 14.6797 20.382 14.6559 20.4533C14.6321 20.5246 14.592 20.5894 14.5388 20.6426C14.4857 20.6958 14.4209 20.7358 14.3495 20.7597C14.2782 20.7835 14.2024 20.7904 14.1279 20.7799H12.5026Z" fill="#F15A25"/>
<path d="M18.8249 20.7801C18.7501 20.7915 18.6737 20.7852 18.6017 20.7617C18.5298 20.7383 18.4643 20.6983 18.4106 20.645C18.3568 20.5918 18.3163 20.5267 18.2922 20.4549C18.2681 20.3832 18.2611 20.3068 18.2718 20.2319V7.3602C18.2576 7.28384 18.262 7.2052 18.2846 7.13089C18.3071 7.05657 18.3472 6.98876 18.4014 6.93313C18.4555 6.87751 18.5223 6.83571 18.596 6.81125C18.6697 6.78678 18.7482 6.78037 18.8249 6.79254H20.033C20.185 6.78428 20.3358 6.82326 20.4648 6.90413C20.5826 7.01075 20.6555 7.15819 20.6686 7.31653L20.8626 8.85939C21.2866 8.38976 21.7581 7.96538 22.2697 7.59308C22.6851 7.29323 23.1452 7.06073 23.633 6.90413C24.1185 6.75402 24.624 6.67876 25.1322 6.68095C25.3554 6.68095 25.5737 6.68095 25.7969 6.71006C25.9256 6.71006 26.049 6.76118 26.1399 6.85217C26.2309 6.94316 26.2821 7.06656 26.2821 7.19524V8.73325C26.2899 8.79884 26.2827 8.86535 26.261 8.92776C26.2394 8.99018 26.2039 9.04687 26.1572 9.09358C26.1105 9.14029 26.0538 9.17579 25.9914 9.19742C25.929 9.21904 25.8625 9.22622 25.7969 9.21842C25.6319 9.21842 25.4718 9.21842 25.3117 9.21842C25.1507 9.19945 24.9887 9.18973 24.8265 9.18931C23.4476 9.15698 22.1041 9.62782 21.047 10.5138V20.2319C21.0575 20.3063 21.0506 20.3822 21.0268 20.4535C21.0029 20.5248 20.9628 20.5896 20.9097 20.6428C20.8565 20.696 20.7917 20.7361 20.7204 20.7599C20.6491 20.7837 20.5732 20.7907 20.4988 20.7801H18.8249Z" fill="#F15A25"/>
<path d="M33.6328 21.1924C31.3687 21.1924 29.6592 20.5681 28.5045 19.3196C27.3498 18.0711 26.7708 16.2242 26.7676 13.7789C26.7676 11.4468 27.3466 9.63228 28.5045 8.33524C29.6625 7.03821 31.2797 6.39131 33.3563 6.39454C35.1029 6.39454 36.4436 6.87972 37.3784 7.85007C38.3131 8.82042 38.7821 10.2113 38.7854 12.0226C38.7854 12.6235 38.74 13.2236 38.6495 13.8177C38.6359 13.9797 38.5733 14.1337 38.47 14.2592C38.3526 14.3412 38.2099 14.3791 38.0673 14.366H29.4166C29.4506 15.9476 29.8436 17.1121 30.5859 17.8689C31.3282 18.6258 32.5072 19.0188 34.0452 19.0188C34.5757 19.0242 35.1059 18.9918 35.6317 18.9218C36.2898 18.8085 36.9385 18.6463 37.5724 18.4366L37.9024 18.3396C37.9829 18.3162 38.066 18.3032 38.1498 18.3007C38.3875 18.3007 38.5088 18.4657 38.5088 18.7859V19.5573C38.5229 19.7345 38.484 19.9118 38.3972 20.0668C38.263 20.2103 38.0967 20.32 37.9121 20.387C37.2784 20.6504 36.6179 20.844 35.9422 20.9644C35.1814 21.1134 34.4081 21.1898 33.6328 21.1924ZM36.277 12.566C36.3007 12.329 36.3104 12.0909 36.3061 11.8528C36.3742 10.938 36.0934 10.0314 35.5201 9.3153C35.2194 9.01786 34.8588 8.78787 34.4623 8.64063C34.0657 8.4934 33.6424 8.4323 33.2204 8.46139C32.7224 8.43155 32.2237 8.50829 31.7577 8.6865C31.2917 8.86471 30.869 9.14028 30.518 9.49481C29.8727 10.1886 29.5088 11.2075 29.4166 12.566H36.277Z" fill="#F15A25"/>
<path d="M49.0466 20.9741C46.4299 20.9741 45.1215 19.669 45.1215 17.0587V8.95628H43.1468C43.072 8.96764 42.9956 8.96133 42.9236 8.93788C42.8517 8.91442 42.7862 8.87445 42.7325 8.82118C42.6787 8.76791 42.6382 8.7028 42.6141 8.63106C42.59 8.55933 42.583 8.48295 42.5937 8.40804V7.71909C42.5831 7.56923 42.628 7.42069 42.7199 7.30184C42.8558 7.18613 43.0267 7.11948 43.2051 7.11262L45.2185 6.86033L45.5776 3.4641C45.5738 3.38881 45.5863 3.31359 45.614 3.24349C45.6417 3.17339 45.6841 3.11002 45.7383 3.05764C45.7925 3.00527 45.8573 2.96508 45.9283 2.93979C45.9993 2.9145 46.075 2.90468 46.1501 2.911H47.3096C47.3827 2.90097 47.4571 2.90774 47.5272 2.93078C47.5973 2.95383 47.6612 2.99256 47.714 3.04401C47.7669 3.09547 47.8073 3.1583 47.8323 3.22774C47.8572 3.29717 47.8659 3.37137 47.8579 3.44469V6.7924H51.4288C51.5041 6.78086 51.581 6.7872 51.6534 6.81092C51.7257 6.83463 51.7915 6.87505 51.8454 6.9289C51.8992 6.98276 51.9396 7.04853 51.9634 7.12091C51.9871 7.19328 51.9934 7.27022 51.9819 7.3455V8.39348C51.9952 8.46948 51.9901 8.54756 51.9672 8.62122C51.9442 8.69488 51.9041 8.76201 51.85 8.81704C51.7959 8.87207 51.7295 8.91341 51.6562 8.93762C51.583 8.96184 51.505 8.96824 51.4288 8.95628H47.8579V16.9229C47.8316 17.18 47.8585 17.4397 47.937 17.686C48.0154 17.9322 48.1438 18.1596 48.314 18.3541C48.7669 18.6737 49.3196 18.82 49.8714 18.7665C50.3063 18.7587 50.7397 18.7133 51.1668 18.6307C51.3489 18.5897 51.5337 18.5621 51.7199 18.5482C51.7766 18.5418 51.834 18.5501 51.8867 18.5722C51.9393 18.5942 51.9855 18.6294 52.0207 18.6743C52.0867 18.796 52.1154 18.9343 52.1032 19.0722V19.8145C52.1158 20.0003 52.079 20.1861 51.9964 20.3531C51.8865 20.4973 51.7308 20.5999 51.5549 20.6442C50.7395 20.8763 49.8943 20.9875 49.0466 20.9741Z" fill="#F15A25"/>
<path d="M59.526 20.78C59.3317 20.7951 59.137 20.7565 58.9632 20.6684C58.7805 20.4985 58.6508 20.2795 58.5896 20.0377L53.7136 7.80154C53.6748 7.68995 53.636 7.57836 53.5875 7.46677C53.5458 7.37177 53.5227 7.26965 53.5195 7.16596C53.5195 6.92822 53.6602 6.80693 53.9319 6.80693H55.5621C55.7611 6.79184 55.9605 6.83037 56.1395 6.91852C56.3117 7.09416 56.4354 7.31148 56.4985 7.54925L60.2732 18.3007L64.043 7.54925C64.1061 7.31148 64.2298 7.09416 64.402 6.91852C64.5808 6.82968 64.7804 6.79111 64.9794 6.80693H66.498C66.7697 6.80693 66.9104 6.92822 66.9104 7.16596C66.9072 7.26965 66.8841 7.37177 66.8424 7.46677C66.7939 7.57836 66.7551 7.68995 66.7163 7.80154L61.8645 20.0377C61.8044 20.2788 61.6765 20.4977 61.4958 20.6684C61.3202 20.7564 61.124 20.795 60.9282 20.78H59.526Z" fill="#F15A25"/>
<path fill-rule="evenodd" clip-rule="evenodd" d="M54.2089 29.5131C48.4693 33.7487 40.1534 35.9999 32.9922 35.9999C23.4226 36.0485 14.1797 32.5222 7.07414 26.112C6.54045 25.6268 7.01592 24.967 7.66606 25.3406C15.5609 29.8554 24.4992 32.2271 33.5938 32.2204C40.3878 32.1862 47.1082 30.8111 53.3696 28.174C54.3399 27.7616 55.1502 28.8144 54.2041 29.5131" fill="#F15A25"/>
<path fill-rule="evenodd" clip-rule="evenodd" d="M56.596 26.7865C55.8586 25.8501 51.7443 26.345 49.8958 26.5633C49.333 26.6312 49.2456 26.1412 49.7502 25.787C53.0348 23.4824 58.4154 24.1471 59.0413 24.9185C59.6672 25.69 58.8764 31.0948 55.8003 33.6517C55.3152 34.0495 54.8737 33.8361 55.0871 33.3169C55.7761 31.5849 57.3286 27.7132 56.596 26.7719" fill="#F15A25"/>
</g>
<defs>
<clipPath id="clip0_3228_26640">
<rect width="66.9154" height="36" fill="white"/>
</clipPath>
</defs>
</svg>
