<svg width="57" height="56" viewBox="0 0 57 56" fill="none" xmlns="http://www.w3.org/2000/svg">
<g id="Now Player app icon" clip-path="url(#clip0_1319_31189)">
<path id="rounded_path" d="M55.146 17.0528C55.146 10.298 54.6867 6.83423 51.4992 3.64677C48.3118 0.4593 44.8515 0 38.0932 0H17.2866C10.5318 0 7.07154 0.4593 3.88407 3.64677C0.696604 6.83423 0.237305 10.2945 0.237305 17.0528V37.8594C0.237305 44.6142 0.696604 48.0779 3.88407 51.2654C7.07154 54.4529 10.5318 54.9122 17.2901 54.9122H38.0967C44.8515 54.9122 48.3152 54.4529 51.5027 51.2654C54.6902 48.0779 55.1495 44.6176 55.1495 37.8594V17.0528H55.146Z" fill="black"/>
<path id="Vector" d="M48.6477 25.4677C48.6407 25.517 48.6266 25.5663 48.5914 25.6051C48.5597 25.6438 48.5174 25.6896 48.4716 25.7178L44.1642 28.8735C44.0339 28.9686 43.8543 28.9545 43.7521 28.8348C43.65 28.715 43.6746 28.546 43.6641 28.4544V22.4071C43.6782 22.312 43.6465 22.15 43.7486 22.0302C43.8507 21.9105 44.0304 21.8964 44.1607 21.9915L48.4822 25.1613C48.528 25.193 48.5632 25.2247 48.5949 25.2634C48.6301 25.3057 48.6442 25.3515 48.6512 25.4008C48.6512 25.4149 48.6512 25.4255 48.6512 25.4395C48.6512 25.4501 48.6512 25.4642 48.6512 25.4748L48.6477 25.4677Z" fill="white"/>
<path id="Vector_2" d="M25.2051 35.6251H26.1067V36.3048H26.1278C26.3004 36.0513 26.5399 35.854 26.8428 35.7132C27.1457 35.5723 27.4592 35.5018 27.7797 35.5018C28.146 35.5018 28.477 35.5652 28.7764 35.692C29.0722 35.8188 29.3258 35.9949 29.5372 36.2238C29.7485 36.4493 29.9105 36.7169 30.0232 37.0198C30.1359 37.3227 30.1922 37.6503 30.1922 37.9954C30.1922 38.3406 30.1359 38.6787 30.0232 38.9816C29.9105 39.2845 29.7485 39.5486 29.5372 39.7705C29.3258 39.9924 29.0722 40.1685 28.7764 40.2953C28.4805 40.4221 28.1495 40.4855 27.7797 40.4855C27.438 40.4855 27.1175 40.4115 26.8182 40.2706C26.5188 40.1262 26.2863 39.9325 26.1278 39.686H26.1067V43.1869H25.2051V35.6251ZM27.667 36.3436C27.4275 36.3436 27.2091 36.3859 27.0154 36.4704C26.8217 36.5549 26.6597 36.6676 26.5258 36.812C26.392 36.9564 26.2899 37.129 26.2159 37.3333C26.1419 37.5376 26.1067 37.7594 26.1067 37.9989C26.1067 38.2384 26.1419 38.4603 26.2159 38.6646C26.2899 38.8689 26.392 39.0415 26.5258 39.1859C26.6597 39.3303 26.8217 39.443 27.0154 39.5275C27.2091 39.612 27.4239 39.6508 27.667 39.6508C27.91 39.6508 28.1248 39.6085 28.3185 39.5275C28.5122 39.443 28.6743 39.3303 28.8081 39.1859C28.9419 39.0415 29.0441 38.8689 29.118 38.6646C29.192 38.4603 29.2272 38.2384 29.2272 37.9989C29.2272 37.7594 29.192 37.5376 29.118 37.3333C29.0441 37.129 28.9419 36.9564 28.8081 36.812C28.6743 36.6676 28.5122 36.5549 28.3185 36.4704C28.1248 36.3859 27.91 36.3436 27.667 36.3436Z" fill="white"/>
<path id="Vector_3" d="M31.3857 32.8005H32.2874V40.3623H31.3857V32.8005Z" fill="white"/>
<path id="Vector_4" d="M33.7389 36.2027C33.9925 35.9703 34.2848 35.7942 34.6194 35.6779C34.954 35.5617 35.2851 35.5018 35.6197 35.5018C35.9543 35.5018 36.2642 35.5441 36.5143 35.6321C36.7643 35.7202 36.9686 35.8364 37.1306 35.9808C37.2891 36.1287 37.4089 36.2943 37.4864 36.4845C37.5638 36.6747 37.6026 36.8719 37.6026 37.0797V39.4993C37.6026 39.6648 37.6026 39.8198 37.6132 39.9607C37.6202 40.1016 37.6308 40.2354 37.6413 40.3622H36.8418C36.8207 40.1227 36.8101 39.8832 36.8101 39.6402H36.789C36.5882 39.9466 36.3523 40.165 36.0776 40.2918C35.8028 40.4186 35.4859 40.482 35.1266 40.482C34.9082 40.482 34.6969 40.4503 34.4962 40.3904C34.2954 40.3305 34.1228 40.2425 33.9714 40.1192C33.8235 39.9994 33.7037 39.8515 33.6157 39.6754C33.5276 39.4993 33.4854 39.295 33.4854 39.0591C33.4854 38.7526 33.5523 38.4955 33.6896 38.2877C33.827 38.0799 34.0137 37.9144 34.2496 37.7841C34.4856 37.6538 34.7638 37.5622 35.0808 37.5023C35.3978 37.446 35.7359 37.4178 36.0952 37.4178H36.7538V37.217C36.7538 37.0973 36.7291 36.9776 36.6833 36.8578C36.6376 36.7381 36.5671 36.6289 36.472 36.5338C36.3769 36.4387 36.2607 36.3612 36.1233 36.3048C35.9825 36.2485 35.8169 36.2203 35.6232 36.2203C35.4506 36.2203 35.2992 36.2379 35.1689 36.2696C35.0386 36.3013 34.9188 36.3436 34.8131 36.3929C34.7075 36.4422 34.6089 36.5021 34.5243 36.569C34.4363 36.6359 34.3553 36.6993 34.2743 36.7592L33.7354 36.1992L33.7389 36.2027ZM36.2783 38.0835C36.0635 38.0835 35.8451 38.094 35.6232 38.1187C35.4013 38.1433 35.197 38.1856 35.0139 38.2525C34.8308 38.3194 34.6793 38.411 34.5631 38.5308C34.4469 38.6505 34.387 38.8055 34.387 38.9921C34.387 39.2669 34.4786 39.4606 34.6617 39.5838C34.8448 39.7036 35.0949 39.7635 35.4084 39.7635C35.6549 39.7635 35.8662 39.7212 36.0388 39.6367C36.2114 39.5521 36.3523 39.4465 36.4579 39.3126C36.5636 39.1788 36.6411 39.0309 36.6869 38.8689C36.7326 38.7069 36.7573 38.5449 36.7573 38.3828V38.0835H36.2783Z" fill="white"/>
<path id="Vector_5" d="M38.3488 35.6251H39.3878L40.7931 39.3267H40.8142L42.1597 35.6251H43.1212L40.8706 41.3871C40.7896 41.5949 40.7086 41.7816 40.6205 41.9506C40.536 42.1197 40.4303 42.2676 40.3106 42.3874C40.1909 42.5071 40.0465 42.5987 39.8774 42.6656C39.7083 42.7325 39.5005 42.7642 39.254 42.7642C39.1202 42.7642 38.9863 42.7572 38.849 42.7396C38.7116 42.722 38.5813 42.6867 38.4545 42.6339L38.5637 41.8133C38.7433 41.8872 38.9194 41.9225 39.099 41.9225C39.2364 41.9225 39.3561 41.9049 39.4512 41.8661C39.5463 41.8309 39.6309 41.7745 39.7013 41.7076C39.7717 41.6372 39.8281 41.5562 39.8739 41.4646C39.9197 41.3695 39.9654 41.2638 40.0112 41.1441L40.3036 40.3939L38.3418 35.6216L38.3488 35.6251Z" fill="white"/>
<path id="Vector_6" d="M44.5933 38.323C44.5933 38.5308 44.6391 38.7175 44.7272 38.8865C44.8188 39.0556 44.935 39.2 45.0829 39.3233C45.2308 39.443 45.3999 39.5381 45.5936 39.605C45.7873 39.6719 45.9881 39.7036 46.1923 39.7036C46.4706 39.7036 46.7171 39.6367 46.9214 39.5099C47.1292 39.3796 47.3194 39.207 47.492 38.9957L48.1717 39.517C47.6716 40.165 46.9707 40.489 46.0726 40.489C45.6993 40.489 45.3611 40.4256 45.0583 40.2988C44.7554 40.1721 44.4983 39.996 44.2869 39.7741C44.0756 39.5522 43.9136 39.288 43.8009 38.9851C43.6882 38.6822 43.6318 38.3547 43.6318 37.999C43.6318 37.6433 43.6917 37.3157 43.8185 37.0128C43.9418 36.7099 44.1108 36.4458 44.3292 36.2239C44.544 35.9985 44.8047 35.8259 45.104 35.6991C45.4034 35.5723 45.731 35.5089 46.0832 35.5089C46.5023 35.5089 46.858 35.5829 47.1468 35.7308C47.4391 35.8787 47.6751 36.0689 47.8618 36.3049C48.0484 36.5409 48.1823 36.8085 48.2668 37.1044C48.3513 37.4002 48.3901 37.7031 48.3901 38.0095V38.33H44.5898L44.5933 38.323ZM47.4321 37.6045C47.425 37.4038 47.3933 37.2206 47.337 37.0551C47.2806 36.8895 47.1961 36.7451 47.0799 36.6219C46.9672 36.4986 46.8263 36.4 46.6537 36.3331C46.4847 36.2626 46.2839 36.2274 46.0585 36.2274C45.8331 36.2274 45.6359 36.2697 45.4527 36.3542C45.2696 36.4387 45.1146 36.5444 44.9878 36.6782C44.861 36.8121 44.7624 36.96 44.692 37.122C44.6215 37.284 44.5863 37.446 44.5863 37.608H47.4286L47.4321 37.6045Z" fill="white"/>
<path id="Vector_7" d="M49.4746 35.6251H50.3762V36.3542H50.3974C50.4572 36.2274 50.5383 36.1111 50.6369 36.009C50.7355 35.9069 50.8482 35.8153 50.9715 35.7448C51.0947 35.6709 51.2286 35.6145 51.3765 35.5687C51.5244 35.5265 51.6688 35.5018 51.8167 35.5018C51.9647 35.5018 52.0985 35.523 52.2183 35.5617L52.1795 36.5303C52.1056 36.5091 52.0316 36.495 51.9576 36.481C51.8837 36.4669 51.8097 36.4598 51.7357 36.4598C51.2955 36.4598 50.9574 36.5831 50.7249 36.8296C50.4925 37.0762 50.3762 37.4601 50.3762 37.9813V40.3622H49.4746V35.6216V35.6251Z" fill="white"/>
<path id="Vector_8" fill-rule="evenodd" clip-rule="evenodd" d="M7.75328 21.2342C8.45768 20.5615 9.49316 20.1776 10.4265 20.1776C13.1103 20.1776 13.8288 21.7801 14.0119 23.122C14.8572 21.3786 16.6428 20.1776 18.7103 20.1776C20.1649 20.1776 21.4786 20.7728 22.426 21.7308L22.0245 20.4452H25.6522L26.987 25.3021L28.2796 20.4452H31.4846L32.7772 25.288L34.1155 20.4452H37.7608L34.672 30.3386H31.15L29.8997 25.4641L28.6353 30.3386H25.1133L23.8524 26.2918C23.4262 28.7431 21.2884 30.6063 18.7138 30.6063C16.6921 30.6063 14.9417 29.4581 14.0788 27.7781V30.3386H10.4511V25.5451C10.4511 24.5343 10.6695 23.2664 9.21139 23.2664C8.30272 23.2664 7.84838 24.0166 7.84838 24.971V30.3386H4.2207V20.4452H7.76033V21.2342H7.75328ZM18.7067 27.3942C19.8127 27.3942 20.7143 26.4961 20.7143 25.3866C20.7143 24.2772 19.8127 23.3826 18.7067 23.3826C17.6008 23.3826 16.7027 24.2807 16.7027 25.3866C16.7027 26.4925 17.6008 27.3942 18.7067 27.3942ZM17.9706 31.6347H19.4428V36.09H17.9706V31.6347ZM17.9706 14.7325H19.4428V19.1879H17.9706V14.7325Z" fill="url(#paint0_linear_1319_31189)"/>
<path id="Vector_9" d="M45.5232 32.1419C41.811 32.1419 38.7891 29.12 38.7891 25.4078C38.7891 21.6956 41.811 18.6737 45.5232 18.6737C49.2354 18.6737 52.2572 21.6956 52.2572 25.4078C52.2572 29.12 49.2354 32.1419 45.5232 32.1419ZM45.5232 19.4556C42.2371 19.4556 39.5674 22.1288 39.5674 25.4113C39.5674 28.6938 42.2371 31.367 45.5232 31.367C48.8092 31.367 51.4789 28.6938 51.4789 25.4113C51.4789 22.1288 48.8057 19.4556 45.5232 19.4556Z" fill="white"/>
</g>
<defs>
<linearGradient id="paint0_linear_1319_31189" x1="20.9855" y1="14.7325" x2="20.9855" y2="36.09" gradientUnits="userSpaceOnUse">
<stop stop-color="#FFC415"/>
<stop offset="0.51" stop-color="#F79528"/>
<stop offset="1" stop-color="#F26723"/>
</linearGradient>
<clipPath id="clip0_1319_31189">
<rect width="56" height="56" fill="white" transform="translate(0.237305)"/>
</clipPath>
</defs>
</svg>
