<svg width="192" height="23" viewBox="0 0 192 23" fill="none" xmlns="http://www.w3.org/2000/svg">
<g clip-path="url(#clip0_51_271)">
<path d="M5.92 17.23C4.71459 17.27 3.5193 16.9978 2.45 16.44C1.52796 15.9139 0.699963 15.238 0 14.44L2.57 12.44C2.91712 13.0631 3.41151 13.5919 4.01 13.98C4.57956 14.3253 5.23396 14.5053 5.9 14.5C6.20748 14.5048 6.51302 14.4505 6.8 14.34C7.10073 14.2305 7.3738 14.0564 7.6 13.83C7.78349 13.6465 7.92953 13.4292 8.03 13.19C8.12903 12.9484 8.18325 12.6909 8.19 12.43C8.18786 12.1474 8.093 11.8734 7.92 11.65C7.71841 11.42 7.47812 11.2271 7.21 11.08C6.89003 10.9101 6.55533 10.7695 6.21 10.66L5.04 10.29C4.53 10.13 4.04 9.94997 3.5 9.75997C3.00648 9.57082 2.54455 9.30782 2.13 8.97997C1.7191 8.65956 1.37867 8.25786 1.13 7.79997C0.870976 7.22999 0.757581 6.6046 0.8 5.97997C0.798721 5.39531 0.928574 4.81781 1.18 4.28997C1.41884 3.7713 1.75881 3.30553 2.18 2.91997C2.66157 2.53231 3.21086 2.23732 3.8 2.04997C4.44254 1.82393 5.11887 1.70896 5.8 1.70997C6.3516 1.70996 6.90154 1.77032 7.44 1.88997C7.91037 1.98737 8.36708 2.14184 8.8 2.34997C9.20277 2.54229 9.58196 2.78054 9.93 3.05997C10.2825 3.33075 10.6166 3.62474 10.93 3.93997L8.53 5.78997C8.25316 5.31429 7.85392 4.92148 7.3738 4.6524C6.89369 4.38333 6.35024 4.24782 5.8 4.25997C5.2309 4.22266 4.66812 4.39719 4.22 4.74997C4.04494 4.90128 3.90502 5.08898 3.81 5.29997C3.71866 5.51158 3.67104 5.73948 3.67 5.96997C3.6676 6.24552 3.75932 6.51363 3.93 6.72997C4.11265 6.9579 4.34085 7.14523 4.6 7.27997C4.91941 7.45106 5.25422 7.59168 5.6 7.69997L6.8 8.08997C7.31 8.24997 7.8 8.44997 8.35 8.65997C8.85795 8.8621 9.33312 9.13844 9.76 9.47997C10.1708 9.82431 10.5105 10.2455 10.76 10.72C11.0385 11.2851 11.1725 11.9104 11.15 12.54C11.1498 13.131 11.0307 13.7159 10.8 14.26C10.5764 14.825 10.2356 15.3362 9.8 15.76C9.3222 16.195 8.7655 16.5344 8.16 16.76C7.45196 17.0639 6.69047 17.2236 5.92 17.23Z" fill="#231F20"/>
<path d="M18.55 17.23C17.3942 17.2179 16.2657 16.8767 15.2969 16.2461C14.3281 15.6156 13.5591 14.722 13.08 13.67C12.718 12.8206 12.544 11.9029 12.57 10.98C12.5608 10.0737 12.7378 9.17511 13.09 8.33998C13.4093 7.61735 13.868 6.96487 14.44 6.41998C14.9934 5.89077 15.6459 5.47616 16.36 5.19998C17.0705 4.92151 17.827 4.77904 18.59 4.77998C19.3526 4.77029 20.1088 4.92016 20.81 5.21998C21.4571 5.49078 22.0323 5.90847 22.49 6.43998V4.80998H25.29V17.21H22.49V15.45C22.0325 16.0008 21.4542 16.4388 20.8 16.73C20.0958 17.0597 19.3276 17.2304 18.55 17.23ZM19.01 14.6C19.5075 14.6079 20.0013 14.5125 20.46 14.32C20.8854 14.1513 21.2729 13.8998 21.6 13.58C21.9228 13.2473 22.1806 12.8573 22.36 12.43C22.5518 11.9709 22.6471 11.4774 22.64 10.98C22.6503 10.2695 22.4483 9.57216 22.06 8.97715C21.6716 8.38215 21.1145 7.91656 20.46 7.63998C19.5274 7.27723 18.4927 7.27723 17.56 7.63998C17.1254 7.82131 16.7285 8.08249 16.39 8.40998C16.053 8.7272 15.7871 9.11236 15.61 9.53998C15.4137 9.99408 15.3181 10.4854 15.33 10.98C15.3239 11.4602 15.4158 11.9365 15.6 12.38C15.7802 12.8201 16.0491 13.2184 16.39 13.55C16.7285 13.8775 17.1254 14.1387 17.56 14.32C18.0188 14.5125 18.5126 14.6079 19.01 14.6Z" fill="#231F20"/>
<path d="M27.21 4.80997H29.99V6.40997C30.3819 5.90807 30.8852 5.50411 31.46 5.22997C32.0835 4.93017 32.7682 4.77953 33.46 4.78997C34.3006 4.76079 35.1345 4.9503 35.88 5.33997C36.5298 5.69814 37.0588 6.24105 37.4 6.89997C37.817 6.25689 38.3874 5.72766 39.06 5.35997C40.0268 4.88663 41.1119 4.70911 42.1792 4.84964C43.2465 4.99017 44.2486 5.4425 45.06 6.14997C45.9406 7.18694 46.3914 8.5214 46.32 9.87997V17.21H43.48V10.15C43.5281 9.39234 43.2928 8.64387 42.82 8.04997C42.5683 7.78069 42.2612 7.56917 41.92 7.42997C41.5797 7.29757 41.2141 7.24291 40.85 7.26997C40.5061 7.2636 40.1649 7.33184 39.85 7.46997C39.523 7.60114 39.2268 7.79862 38.98 8.04997C38.7011 8.37851 38.4903 8.75923 38.36 9.16997C38.2303 9.58006 38.1794 10.011 38.21 10.44V17.21H35.31V10.06C35.3412 9.34003 35.1182 8.63204 34.68 8.05997C34.4349 7.80653 34.1382 7.60873 33.81 7.47997C33.4922 7.3546 33.151 7.3 32.81 7.31997C32.4464 7.3106 32.0851 7.37878 31.75 7.51997C31.4072 7.65178 31.0993 7.86047 30.85 8.12997C30.5673 8.46232 30.353 8.84711 30.2191 9.26235C30.0853 9.67759 30.0346 10.1151 30.07 10.55V17.26H27.27L27.21 4.80997Z" fill="#231F20"/>
<path d="M52.74 17.23C51.5795 17.2708 50.4285 17.0089 49.4 16.47C48.5082 15.9508 47.7912 15.178 47.34 14.25L49.94 13.06C50.2165 13.5791 50.6275 14.0143 51.13 14.32C51.6611 14.6164 52.2619 14.7649 52.87 14.75C53.4223 14.7881 53.9714 14.6402 54.43 14.33C54.5899 14.2143 54.7173 14.0593 54.8 13.88C54.8904 13.703 54.9416 13.5086 54.95 13.31C54.9494 13.2103 54.929 13.1117 54.89 13.02C54.8446 12.9329 54.7836 12.855 54.71 12.79C54.521 12.6389 54.3081 12.5206 54.08 12.44C53.7875 12.3291 53.4865 12.2421 53.18 12.18L52.09 11.98C51.57 11.87 51.09 11.74 50.55 11.59C50.0701 11.4519 49.6122 11.2465 49.19 10.98C48.7851 10.7268 48.4432 10.3848 48.19 9.98001C47.96 9.52948 47.84 9.03085 47.84 8.52501C47.84 8.01917 47.96 7.52054 48.19 7.07001C48.4092 6.62704 48.7193 6.2352 49.1 5.92001C49.5485 5.56077 50.0608 5.28936 50.61 5.12001C51.2563 4.91479 51.9319 4.81682 52.61 4.83001C53.6527 4.79796 54.686 5.03562 55.61 5.52001C56.3985 5.96409 57.0517 6.61385 57.5 7.40001L55.11 8.55001C54.8706 8.13434 54.5256 7.78934 54.11 7.55001C53.6348 7.30305 53.1053 7.17927 52.57 7.19001C52.0481 7.14905 51.5275 7.28272 51.09 7.57001C50.9487 7.67275 50.8325 7.80607 50.75 7.96001C50.6686 8.11852 50.6209 8.29217 50.61 8.47001C50.61 8.86001 50.85 9.11001 51.32 9.30001C51.9996 9.52905 52.6947 9.70951 53.4 9.84001C53.91 9.94001 54.4 10.06 54.91 10.21C55.3943 10.3629 55.8552 10.5816 56.28 10.86C56.6882 11.1089 57.0311 11.4517 57.28 11.86C57.5521 12.3301 57.6872 12.8671 57.67 13.41C57.6594 13.8549 57.5609 14.2934 57.38 14.7C57.1811 15.1795 56.8888 15.6147 56.52 15.98C56.0686 16.3901 55.5423 16.7093 54.97 16.92C54.2515 17.1575 53.4959 17.2625 52.74 17.23Z" fill="#231F20"/>
<path d="M69.95 17.21H67.17V15.66C66.7832 16.1514 66.2866 16.5453 65.72 16.81C65.0929 17.0969 64.4096 17.2404 63.72 17.23C63.0651 17.2682 62.4097 17.1624 61.8 16.92C61.2171 16.6802 60.6921 16.3189 60.26 15.86C59.3679 14.7726 58.9308 13.3823 59.04 11.98V4.81H61.88V11.71C61.8279 12.5161 62.05 13.3161 62.51 13.98C62.7491 14.2662 63.0547 14.4894 63.4 14.63C63.7416 14.7711 64.1117 14.8294 64.48 14.8C64.8246 14.8032 65.1658 14.7316 65.48 14.59C65.8183 14.4465 66.1193 14.2276 66.36 13.95C66.9094 13.2597 67.1837 12.3905 67.13 11.51V4.81H69.93L69.95 17.21Z" fill="#231F20"/>
<path d="M71.88 4.80996H74.67V6.50996C75.0781 5.98871 75.5974 5.56508 76.19 5.26996C77.1183 4.84288 78.1523 4.70044 79.1614 4.86062C80.1706 5.0208 81.1096 5.47643 81.86 6.16996C82.7615 7.24629 83.2129 8.62902 83.12 10.03V17.21H80.27V10.31C80.3117 9.51298 80.0709 8.72685 79.59 8.08996C79.3314 7.80585 79.0115 7.58435 78.6546 7.44228C78.2977 7.3002 77.9131 7.24127 77.53 7.26996C77.1562 7.26716 76.7858 7.34117 76.4418 7.48738C76.0978 7.63359 75.7874 7.8489 75.53 8.11996C75.2396 8.45293 75.0187 8.8405 74.88 9.25996C74.739 9.67804 74.6813 10.1197 74.71 10.56V17.21H71.91L71.88 4.80996Z" fill="#231F20"/>
<path d="M94.5 15.32C94.0548 15.9171 93.4714 16.3975 92.8 16.72C92.097 17.0646 91.3229 17.2393 90.54 17.23C89.0145 17.2244 87.5485 16.638 86.44 15.59C85.86 15.0498 85.3971 14.3963 85.08 13.67C84.7207 12.8402 84.5401 11.9441 84.55 11.04C84.5382 10.1312 84.7118 9.2295 85.06 8.38998C85.3792 7.66735 85.838 7.01487 86.41 6.46998C86.9662 5.93456 87.6219 5.51329 88.34 5.22998C89.0539 4.95142 89.8137 4.80897 90.58 4.80998C91.347 4.79756 92.1066 4.9618 92.8 5.28998C93.4517 5.58536 94.0291 6.02269 94.49 6.56998V4.80998H97.29V16.74C97.2947 17.5643 97.1559 18.3832 96.88 19.16C96.6291 19.9033 96.2236 20.5849 95.69 21.16C95.1257 21.7457 94.4442 22.2057 93.69 22.51C92.8273 22.8477 91.9062 23.0109 90.98 22.99C90.255 22.9979 89.5322 22.9105 88.83 22.73C88.2301 22.5633 87.6575 22.3107 87.13 21.98C86.6367 21.6664 86.1891 21.2862 85.8 20.85C85.4144 20.4121 85.0789 19.9325 84.8 19.42L87.32 17.87C87.6727 18.5899 88.1777 19.2246 88.8 19.73C89.4694 20.1873 90.2704 20.4122 91.08 20.37C91.5509 20.3813 92.0186 20.2891 92.45 20.1C92.8858 19.9134 93.2775 19.6374 93.6 19.29C93.9021 18.949 94.1333 18.5513 94.28 18.12C94.4405 17.6846 94.5218 17.224 94.52 16.76L94.5 15.32ZM90.99 14.6C91.4906 14.6069 91.9875 14.5117 92.45 14.32C92.8759 14.1526 93.2637 13.9009 93.59 13.58C93.9052 13.2413 94.1621 12.8527 94.35 12.43C94.5417 11.9709 94.637 11.4774 94.63 10.98C94.6328 10.5024 94.5375 10.0293 94.35 9.58998C94.1711 9.1534 93.9135 8.75342 93.59 8.40998C93.2624 8.08319 92.8755 7.82185 92.45 7.63998C91.5174 7.27723 90.4826 7.27723 89.55 7.63998C89.1123 7.82126 88.7122 8.08237 88.37 8.40998C88.039 8.73408 87.7771 9.12188 87.6 9.54998C87.4038 10.0006 87.3082 10.4886 87.32 10.98C87.3187 11.4565 87.4104 11.9286 87.59 12.37C87.7724 12.8095 88.0371 13.21 88.37 13.55C88.7083 13.88 89.1096 14.1384 89.55 14.31C90.0049 14.5049 90.4951 14.6036 90.99 14.6Z" fill="#231F20"/>
<path d="M108.21 4.49999H104.21V1.73999H115.21V4.49999H111.14V17.21H108.31L108.21 4.49999Z" fill="#231F20"/>
<path d="M116.31 1.77998C116.304 1.54432 116.345 1.30983 116.43 1.08998C116.511 0.868901 116.633 0.665259 116.79 0.48998C116.958 0.330305 117.155 0.204651 117.37 0.11998C117.585 0.0309629 117.817 -0.00999058 118.05 -1.98609e-05C118.289 -0.0141615 118.527 0.02336 118.75 0.10998C118.976 0.189473 119.181 0.319422 119.35 0.48998C119.656 0.848825 119.816 1.30891 119.8 1.77998C119.778 2.13776 119.661 2.48314 119.46 2.77998C119.263 3.06909 118.986 3.29476 118.663 3.42965C118.34 3.56454 117.984 3.60287 117.64 3.53998C117.296 3.46983 116.978 3.30734 116.72 3.06998C116.424 2.7077 116.278 2.24646 116.31 1.77998ZM116.67 4.77998H119.49V17.18H116.67V4.77998Z" fill="#231F20"/>
<path d="M121.09 14.6L128.15 7.34997H121.23V4.77997H131.8V7.38997L124.8 14.67H131.98V17.24H121.09V14.6Z" fill="#231F20"/>
<path d="M139.12 17.23C138.224 17.2422 137.334 17.0791 136.5 16.75C135.755 16.4608 135.075 16.0256 134.5 15.47C133.93 14.9006 133.484 14.2197 133.19 13.47C132.712 12.322 132.586 11.0578 132.828 9.8381C133.07 8.61837 133.67 7.49819 134.55 6.61998C135.747 5.44283 137.361 4.78832 139.04 4.79998C139.898 4.78914 140.75 4.94187 141.55 5.24998C142.282 5.53994 142.948 5.97579 143.507 6.53106C144.066 7.08632 144.506 7.7494 144.8 8.47998C145.111 9.23485 145.271 10.0435 145.27 10.86V11.86H135.36C135.527 12.6939 135.98 13.4435 136.64 13.98C137.34 14.5358 138.216 14.8231 139.11 14.79C139.84 14.8032 140.558 14.5978 141.17 14.2C141.749 13.8012 142.203 13.2464 142.48 12.6L144.8 13.98C144.271 15.0251 143.456 15.8989 142.45 16.5C141.45 17.0912 140.3 17.3795 139.14 17.33L139.12 17.23ZM139.02 7.30998C138.251 7.29077 137.492 7.48829 136.83 7.87998C136.244 8.23105 135.785 8.76004 135.52 9.38998H142.45C142.264 8.73532 141.83 8.17914 141.24 7.83998C140.563 7.46275 139.795 7.27938 139.02 7.30998Z" fill="#231F20"/>
<path d="M146.72 4.80998H149.5V6.50998C149.914 5.99059 150.436 5.56747 151.03 5.26998C151.965 4.83239 153.01 4.68606 154.03 4.84998C155.039 5.01969 155.977 5.4782 156.73 6.16998C157.633 7.24472 158.082 8.62961 157.98 10.03V17.21H155.14V10.31C155.183 9.51123 154.938 8.72347 154.45 8.08998C154.196 7.80238 153.877 7.57954 153.52 7.43998C153.164 7.29938 152.781 7.24126 152.4 7.26998C152.022 7.2602 151.647 7.33182 151.3 7.47998C150.948 7.62458 150.631 7.8428 150.37 8.11998C150.087 8.45784 149.866 8.84401 149.72 9.25998C149.582 9.67868 149.528 10.1203 149.56 10.56V17.21H146.75L146.72 4.80998Z" fill="#231F20"/>
<path d="M172.48 17.23C170.954 17.2364 169.461 16.7905 168.188 15.9487C166.916 15.1068 165.921 13.9067 165.33 12.5C164.934 11.5495 164.73 10.5298 164.73 9.49999C164.719 7.69719 165.341 5.94765 166.486 4.55551C167.632 3.16338 169.229 2.21668 171 1.87999C172.516 1.58038 174.086 1.74057 175.51 2.33999C176.425 2.73379 177.262 3.28934 177.98 3.97999C178.884 4.88113 179.552 5.99162 179.923 7.2128C180.295 8.43398 180.359 9.72803 180.11 10.98C179.824 12.4949 179.089 13.8887 178 14.98C177.288 15.6829 176.45 16.246 175.53 16.64C174.564 17.0429 173.526 17.2437 172.48 17.23ZM172.48 14.39C173.144 14.4008 173.802 14.2678 174.41 14C175.601 13.4862 176.552 12.5389 177.07 11.35C177.319 10.7475 177.448 10.102 177.45 9.44999C177.449 8.80107 177.32 8.15869 177.07 7.55999C176.819 6.96643 176.452 6.42918 175.99 5.97999C175.532 5.54892 174.996 5.20948 174.41 4.97999C173.802 4.71375 173.144 4.57751 172.48 4.57999C171.793 4.57036 171.111 4.70669 170.48 4.97999C169.589 5.36055 168.829 5.99483 168.296 6.80386C167.762 7.61289 167.479 8.56094 167.48 9.52999C167.484 10.1925 167.616 10.848 167.87 11.46C168.104 12.0253 168.444 12.5411 168.87 12.98C169.353 13.4184 169.917 13.7581 170.53 13.98C171.145 14.2504 171.809 14.3901 172.48 14.39Z" fill="#231F20"/>
<path d="M186.8 17.23C185.595 17.27 184.399 16.9978 183.33 16.44C182.411 15.9136 181.586 15.2377 180.89 14.44L183.46 12.44C183.789 13.0602 184.267 13.5893 184.85 13.98C185.421 14.3229 186.074 14.5027 186.74 14.5C187.056 14.5187 187.373 14.471 187.67 14.36C187.965 14.2502 188.231 14.076 188.45 13.85C188.639 13.6733 188.789 13.4586 188.89 13.22C188.994 12.9764 189.048 12.7147 189.05 12.45C189.057 12.1598 188.962 11.8764 188.78 11.65C188.583 11.4174 188.342 11.2269 188.07 11.09C187.752 10.9126 187.417 10.7685 187.07 10.66L185.9 10.29C185.39 10.13 184.9 9.94996 184.37 9.75996C183.872 9.5713 183.404 9.31197 182.98 8.98996C182.571 8.67145 182.231 8.27345 181.98 7.81996C181.703 7.26871 181.569 6.65661 181.59 6.03996C181.589 5.4553 181.719 4.8778 181.97 4.34996C182.224 3.82429 182.585 3.35761 183.03 2.97996C183.501 2.57808 184.044 2.26928 184.63 2.06996C185.272 1.84239 185.949 1.72737 186.63 1.72996C187.188 1.72993 187.745 1.79028 188.29 1.90996C188.754 2.00892 189.203 2.16336 189.63 2.36996C190.031 2.56007 190.407 2.79851 190.75 3.07996C191.103 3.35794 191.437 3.65857 191.75 3.97996L189.42 5.82996C189.142 5.35277 188.742 4.95899 188.259 4.68982C187.777 4.42065 187.232 4.286 186.68 4.29996C186.114 4.2642 185.555 4.4387 185.11 4.78996C184.932 4.93839 184.791 5.12686 184.7 5.33996C184.609 5.55158 184.561 5.77948 184.56 6.00996C184.553 6.28631 184.645 6.55611 184.82 6.76996C185.003 6.9979 185.231 7.18522 185.49 7.31996C185.809 7.4916 186.144 7.63224 186.49 7.73996L187.68 8.12996C188.203 8.29348 188.717 8.48373 189.22 8.69996C189.728 8.9021 190.203 9.17844 190.63 9.51996C191.041 9.86431 191.381 10.2855 191.63 10.76C191.912 11.3243 192.049 11.9496 192.03 12.58C192.021 13.1711 191.899 13.755 191.67 14.3C191.446 14.865 191.106 15.3762 190.67 15.8C190.196 16.2528 189.64 16.6094 189.03 16.85C188.32 17.1249 187.561 17.2541 186.8 17.23Z" fill="#231F20"/>
</g>
<defs>
<clipPath id="clip0_51_271">
<rect width="192.01" height="22.98" fill="white"/>
</clipPath>
</defs>
</svg>
