<svg width="110" height="48" viewBox="0 0 110 48" fill="none" xmlns="http://www.w3.org/2000/svg">
<g clip-path="url(#clip0_3166_7534)">
<path d="M93.7297 39.4655C85.1497 39.4655 78.1708 32.5501 78.1708 24.0497C78.1708 15.549 85.1497 8.63384 93.7297 8.63384C102.309 8.63384 109.288 15.549 109.288 24.0497C109.288 32.5501 102.309 39.4655 93.7297 39.4655ZM93.7297 11.8988C86.9675 11.8988 81.4659 17.3505 81.4659 24.0497C81.4659 30.7495 86.9675 36.2006 93.7297 36.2006C100.491 36.2006 105.993 30.7495 105.993 24.0497C105.993 17.3505 100.491 11.8988 93.7297 11.8988ZM8.89755 14.7716C10.4767 13.2771 12.8024 12.4227 14.891 12.4227C20.9097 12.4227 22.5194 15.9819 22.9285 18.9584C24.8163 15.0914 28.8216 12.4227 33.4494 12.4227C36.7109 12.4227 39.6587 13.7436 41.7764 15.8759L40.8782 13.0202H49.0049L51.995 23.8026L54.8949 13.0202H62.0782L64.9712 23.7679L67.9705 13.0202H76.1376L69.2167 34.9844H61.3244L58.523 24.1663L55.6885 34.9844H47.7957L44.9646 25.9943C44.0126 31.4426 39.2189 35.5836 33.4494 35.5836C28.9248 35.5836 24.9993 33.0305 23.0587 29.3008V34.9843H14.926V24.3422C14.926 22.0987 15.4202 19.2837 12.1586 19.2837C10.1143 19.2837 9.10234 20.9442 9.10234 23.0652V34.9843H0.972656V13.0203H8.89755V14.7716ZM33.4494 28.4554C35.9324 28.4554 37.9463 26.4608 37.9463 24.0015C37.9463 21.5476 35.9324 19.549 33.4494 19.549C30.972 19.549 28.9573 21.5475 28.9573 24.0015C28.9573 26.4608 30.972 28.4554 33.4494 28.4554ZM31.8 37.873H35.0979V47.7664H31.8V37.873ZM31.8 0.333008H35.0979V10.2271H31.8V0.333008ZM91.7268 18.3147H98.5366V15.0822H91.7268C88.7705 15.0822 86.3738 17.5071 86.3738 20.4363C86.3738 21.8566 86.9383 23.1096 87.8558 24.0249C86.9384 24.989 86.3738 26.2895 86.3738 27.7099C86.3738 30.6389 88.7705 32.862 91.7268 32.862H98.5366V29.6292H91.7268C90.5896 29.6292 89.6681 28.7468 89.6681 27.6207C89.6681 26.4941 90.5896 25.5884 91.7268 25.5884H98.5366V22.3557H91.7268C90.5896 22.3557 89.6681 21.4734 89.6681 20.347C89.6681 19.2204 90.5896 18.3147 91.7268 18.3147Z" fill="#33058D"/>
</g>
<defs>
<clipPath id="clip0_3166_7534">
<rect width="108.706" height="48" fill="white" transform="translate(0.793945)"/>
</clipPath>
</defs>
</svg>
