<svg width="20" height="21" viewBox="0 0 20 21" fill="none" xmlns="http://www.w3.org/2000/svg">
<path fill-rule="evenodd" clip-rule="evenodd" d="M17.0695 3.10435C13.1625 -0.8027 6.83813 -0.803324 2.93054 3.10435C-0.976553 7.0114 -0.977138 13.3357 2.93054 17.2433C6.83751 21.1504 13.1619 21.151 17.0695 17.2433C20.9766 13.3363 20.9771 7.01198 17.0695 3.10435ZM16.6516 15.8182C16.1845 15.4005 15.6848 15.0308 15.1581 14.7122C15.5063 13.5097 15.7125 12.1865 15.7612 10.811H18.7006C18.5677 12.665 17.8553 14.4043 16.6516 15.8182ZM4.23873 10.811H1.29937C1.4323 12.665 2.14465 14.4043 3.34836 15.8182C3.81548 15.4005 4.31515 15.0308 4.84183 14.7122C4.49371 13.5097 4.28748 12.1865 4.23873 10.811ZM3.3484 4.52951C3.81552 4.94722 4.31519 5.31688 4.84187 5.63545C4.49375 6.83794 4.28752 8.1612 4.23877 9.53672H1.29937C1.4323 7.68268 2.14465 5.94344 3.3484 4.52951ZM6.39314 5.0147C7.32196 5.4369 8.32383 5.69282 9.36291 5.76714V1.54187C7.92916 1.95532 6.93333 3.62369 6.39314 5.0147ZM9.36291 7.04375V9.53676H5.51351C5.55761 8.37318 5.72248 7.25584 5.99667 6.23351C7.05218 6.69493 8.18734 6.97049 9.36291 7.04375ZM9.36291 13.304V10.811H5.51351C5.55761 11.9745 5.72248 13.0919 5.99667 14.1142C7.05218 13.6528 8.18734 13.3772 9.36291 13.304ZM9.36291 14.5806V18.8058C7.92923 18.3923 6.93341 16.7242 6.39314 15.333C7.32196 14.9108 8.32383 14.6549 9.36291 14.5806ZM13.6069 15.333C12.6781 14.9108 11.6762 14.6549 10.6371 14.5806V18.8058C12.0709 18.3923 13.0666 16.7241 13.6069 15.333ZM10.6371 13.304V10.811H14.4865C14.4424 11.9745 14.2775 13.0919 14.0033 14.1142C12.9478 13.6528 11.8127 13.3772 10.6371 13.304ZM10.6371 7.04375V9.53676H14.4865C14.4424 8.37318 14.2775 7.25584 14.0033 6.23351C12.9478 6.69493 11.8127 6.97049 10.6371 7.04375ZM10.6371 5.76714V1.54191C12.0709 1.95536 13.0667 3.62373 13.6069 5.01474C12.6781 5.4369 11.6762 5.69282 10.6371 5.76714ZM15.7573 3.62022C15.0752 3.01938 14.3144 2.53512 13.4988 2.17799C14.0089 2.84721 14.4147 3.61159 14.7324 4.39814C15.0901 4.16602 15.4326 3.90647 15.7573 3.62022ZM5.26762 4.39814C4.9099 4.16602 4.56737 3.90647 4.24267 3.62022C4.92473 3.01938 5.6856 2.53512 6.50114 2.17799C5.99109 2.84729 5.58529 3.61167 5.26762 4.39814ZM6.50118 18.1697C5.99117 17.5005 5.58529 16.7361 5.26765 15.9496C4.90994 16.1817 4.56737 16.4412 4.24271 16.7275C4.92477 17.3283 5.68563 17.8126 6.50118 18.1697ZM14.7324 15.9496C15.0901 16.1817 15.4326 16.4412 15.7573 16.7275C15.0752 17.3283 14.3144 17.8125 13.4988 18.1697C14.0088 17.5005 14.4147 16.7361 14.7324 15.9496ZM15.1582 5.63549C15.5063 6.83794 15.7125 8.16124 15.7613 9.53676H18.7006C18.5677 7.68268 17.8554 5.94344 16.6517 4.52955C16.1845 4.94726 15.6849 5.31692 15.1582 5.63549Z" fill="#6C2BEE"/>
</svg>
