<?xml version="1.0" encoding="utf-8"?>
<!-- Generator: Adobe Illustrator 17.0.0, SVG Export Plug-In . SVG Version: 6.00 Build 0)  -->
<!DOCTYPE svg PUBLIC "-//W3C//DTD SVG 1.1//EN" "http://www.w3.org/Graphics/SVG/1.1/DTD/svg11.dtd">
<svg version="1.1" id="Layer_1" xmlns="http://www.w3.org/2000/svg" xmlns:xlink="http://www.w3.org/1999/xlink" x="0px" y="0px"
	 width="419.53px" height="186.14px" viewBox="0 0 419.53 186.14" enable-background="new 0 0 419.53 186.14" xml:space="preserve">
<g>
	<path fill="#FFFFFF" d="M359.29,152.89c-33.206,0-60.24-27.034-60.24-60.24s27.034-60.24,60.24-60.24s60.24,27.034,60.24,60.24
		C419.53,125.855,392.535,152.89,359.29,152.89 M359.29,45.19c-26.158,0-47.459,21.301-47.459,47.459s21.301,47.459,47.459,47.459
		s47.459-21.301,47.459-47.459C406.789,66.491,385.488,45.19,359.29,45.19 M30.896,56.378c6.132-5.853,15.13-9.157,23.212-9.157
		c23.292,0,29.543,13.895,31.095,25.521c7.326-15.09,22.814-25.521,40.731-25.521c12.621,0,24.048,5.176,32.25,13.497L154.72,49.57
		h31.454l11.586,42.124l11.228-42.124h27.791l11.188,42.005l11.626-42.005h31.613l-26.795,85.801h-30.538l-10.83-42.283
		l-10.989,42.283h-30.538l-10.949-35.117c-3.703,21.301-22.257,37.466-44.593,37.466c-17.519,0-32.728-9.994-40.213-24.566v22.217
		H54.268V93.804c0-8.759,1.911-19.748-10.71-19.748c-7.923,0-11.825,6.49-11.825,14.771v46.583H0.279V49.569h30.697L30.896,56.378
		L30.896,56.378z M125.935,109.85c9.595,0,17.399-7.804,17.399-17.399s-7.804-17.399-17.399-17.399s-17.399,7.804-17.399,17.399
		C108.536,102.086,116.339,109.85,125.935,109.85 M119.564,146.639h12.781v38.66h-12.781V146.639z M119.564,0h12.781v38.66h-12.781
		V0z M351.566,70.234h26.358V57.613h-26.358c-11.427,0-20.704,9.476-20.704,20.903c0,5.534,2.19,10.432,5.733,14.015
		c-3.544,3.782-5.733,8.839-5.733,14.413c0,11.427,9.277,20.146,20.704,20.146h26.358v-12.621h-26.358
		c-4.419,0-7.963-3.464-7.963-7.844c0-4.419,3.583-7.923,7.963-7.923h26.358V86.081h-26.358c-4.419,0-7.963-3.464-7.963-7.844
		C343.563,73.777,347.146,70.234,351.566,70.234z"/>
</g>
</svg>
