<svg width="86" height="48" viewBox="0 0 86 48" fill="none" xmlns="http://www.w3.org/2000/svg">
<path fill-rule="evenodd" clip-rule="evenodd" d="M8.47784 14.6111C10.0638 13.099 12.4021 12.2352 14.5048 12.2352C20.5604 12.2352 22.1814 15.8354 22.5918 18.8514C24.4944 14.9353 28.5206 12.2352 33.1811 12.2352C36.4598 12.2352 39.4251 13.5728 41.557 15.7298L40.6524 12.8401H48.8309L51.8397 23.7484L54.7564 12.8401H61.9871L64.8973 23.7159L67.913 12.8401H76.1302L69.169 35.0669H61.2261L58.4089 24.1177L55.5559 35.0669H47.6143L44.7649 25.9711C43.8065 31.4815 38.9846 35.6713 33.1812 35.6713C28.6249 35.6713 24.6751 33.0914 22.7222 29.3157V35.0669H14.5427V24.2968C14.5427 22.0262 15.0372 19.177 11.7529 19.177C9.69776 19.177 8.67979 20.8593 8.67979 23.006V35.0671H0.5V12.8401H8.47771V14.6111H8.47784ZM33.1812 28.4598C35.6776 28.4598 37.7019 26.4425 37.7019 23.9534C37.7019 21.4648 35.6778 19.4472 33.1812 19.4472C30.684 19.4472 28.6586 21.4648 28.6586 23.9534C28.6586 26.4423 30.684 28.4598 33.1812 28.4598ZM31.5198 37.9875H34.8405V48H31.5198V37.9875ZM31.5198 0H34.8405V10.0125H31.5198V0Z" fill="url(#paint0_linear_3432_10657)"/>
<path fill-rule="evenodd" clip-rule="evenodd" d="M70.0801 40.1251C70.0801 44.0604 73.2971 47.25 77.2639 47.25C81.2326 47.25 84.4498 44.0604 84.4498 40.1251C84.4498 36.1899 81.2328 33 77.2639 33C73.2973 32.9998 70.0801 36.1897 70.0801 40.1251Z" fill="white"/>
<path fill-rule="evenodd" clip-rule="evenodd" d="M73.7531 44.074V39.2097H71.8402V37.5326H77.1448H77.9246H79.1967L80.2765 41.4999L81.3582 37.5326H83.4456L81.386 44.074H79.113L77.6493 39.2097H75.7852V44.074H73.7531V44.074ZM70.0801 40.5001C70.0801 44.6423 73.4663 48 77.6421 48C81.8202 48 85.2061 44.6426 85.2061 40.5001C85.2061 36.3574 81.8202 33 77.6421 33C73.4663 33 70.0801 36.3574 70.0801 40.5001Z" fill="#231F20"/>
<defs>
<linearGradient id="paint0_linear_3432_10657" x1="0.499984" y1="1.28184e-05" x2="0.499984" y2="48.0001" gradientUnits="userSpaceOnUse">
<stop stop-color="#FFC415"/>
<stop offset="0.5141" stop-color="#F79528"/>
<stop offset="1" stop-color="#F26723"/>
</linearGradient>
</defs>
</svg>
