<svg width="74" height="81" viewBox="0 0 74 81" fill="none" xmlns="http://www.w3.org/2000/svg">
<g opacity="0.7">
<path d="M73.8354 81V1L24.2493 79.2684L23.1454 80.5959L22.3174 81H73.8354Z" fill="url(#paint0_linear_3166_7250)"/>
<path d="M73.8354 81V1L24.2493 79.2684L23.1454 80.5959L22.3174 81H73.8354Z" fill="url(#paint1_linear_3166_7250)" fill-opacity="0.9"/>
</g>
<g filter="url(#filter0_d_3166_7250)">
<path d="M7 41.4041C7 41.4041 19.5575 43.6551 25.2613 56.3536C29.4011 65.531 25.9053 79.3839 22.6394 80.9423C23.5594 80.7114 25.3533 78.0563 26.0893 77.1905C59.668 36.0361 73.9274 0.711426 73.9274 0.711426L7 41.4041Z" fill="url(#paint2_linear_3166_7250)" shape-rendering="crispEdges"/>
</g>
<defs>
<filter id="filter0_d_3166_7250" x="0" y="0.711426" width="78.9274" height="92.231" filterUnits="userSpaceOnUse" color-interpolation-filters="sRGB">
<feFlood flood-opacity="0" result="BackgroundImageFix"/>
<feColorMatrix in="SourceAlpha" type="matrix" values="0 0 0 0 0 0 0 0 0 0 0 0 0 0 0 0 0 0 127 0" result="hardAlpha"/>
<feOffset dx="-1" dy="6"/>
<feGaussianBlur stdDeviation="3"/>
<feComposite in2="hardAlpha" operator="out"/>
<feColorMatrix type="matrix" values="0 0 0 0 0 0 0 0 0 0 0 0 0 0 0 0 0 0 0.14 0"/>
<feBlend mode="normal" in2="BackgroundImageFix" result="effect1_dropShadow_3166_7250"/>
<feBlend mode="normal" in="SourceGraphic" in2="effect1_dropShadow_3166_7250" result="shape"/>
</filter>
<linearGradient id="paint0_linear_3166_7250" x1="54.8381" y1="48.619" x2="81.845" y2="66.1526" gradientUnits="userSpaceOnUse">
<stop offset="0.205" stop-color="#F26723"/>
<stop offset="0.74" stop-color="#F79528"/>
</linearGradient>
<linearGradient id="paint1_linear_3166_7250" x1="52.5382" y1="47.176" x2="41.1799" y2="39.633" gradientUnits="userSpaceOnUse">
<stop stop-color="#8E5719" stop-opacity="0"/>
<stop offset="1" stop-color="#8E5719"/>
</linearGradient>
<linearGradient id="paint2_linear_3166_7250" x1="25.7827" y1="16.6644" x2="55.0322" y2="39.6142" gradientUnits="userSpaceOnUse">
<stop stop-color="#F5F5FF"/>
<stop offset="0.3978" stop-color="#9747FF"/>
<stop offset="0.6559" stop-color="#33058D" stop-opacity="0.7"/>
<stop offset="1" stop-color="#33058D"/>
</linearGradient>
</defs>
</svg>
